<svg viewBox="0 0 120 120" xmlns="http://www.w3.org/2000/svg" fill="none">
  <rect width="120" height="120" rx="24" fill="#169BD5" />
  <path d="M32 84c-4 0-7-3-7-7V57c0-4 3-7 7-7s7 3 7 7v20c0 4-3 7-7 7Z" fill="#fff"/>
  <path d="M88 84c-4 0-7-3-7-7V57c0-4 3-7 7-7s7 3 7 7v20c0 4-3 7-7 7Z" fill="#fff"/>
  <path d="M24 56c2-9 12-18 24-18s22 9 24 18" stroke="#fff" stroke-width="7" stroke-linecap="round"/>
  <path d="M96 56c-2-9-12-18-24-18s-22 9-24 18" stroke="#fff" stroke-width="7" stroke-linecap="round"/>
  <path d="M45 48c0-6 5-11 11-11s11 5 11 11" stroke="#fff" stroke-width="6" stroke-linecap="round"/>
  <path d="M60 60v10" stroke="#fff" stroke-width="6" stroke-linecap="round"/>
  <path d="M60 70v22" stroke="#fff" stroke-width="6" stroke-linecap="round"/>
  <path d="M46 92l-8 8" stroke="#fff" stroke-width="6" stroke-linecap="round"/>
  <path d="M74 92l8 8" stroke="#fff" stroke-width="6" stroke-linecap="round"/>
  <path d="M46 40c0-4 3-7 7-7s7 3 7 7-3 7-7 7-7-3-7-7Z" fill="#fff"/>
  <path d="M74 40c0-4 3-7 7-7s7 3 7 7-3 7-7 7-7-3-7-7Z" fill="#fff"/>
  <path d="M44 56l-14-14" stroke="#fff" stroke-width="6" stroke-linecap="round"/>
  <path d="M76 56l14-14" stroke="#fff" stroke-width="6" stroke-linecap="round"/>
  <path d="M58 33v-8" stroke="#fff" stroke-width="6" stroke-linecap="round"/>
  <path d="M58 43v-6" stroke="#fff" stroke-width="6" stroke-linecap="round"/>
</svg>
